<?xml version="1.0" standalone="no"?>
<!DOCTYPE svg PUBLIC "-//W3C//DTD SVG 20010904//EN"
 "http://www.w3.org/TR/2001/REC-SVG-20010904/DTD/svg10.dtd">
<svg version="1.0" xmlns="http://www.w3.org/2000/svg"
 width="300.000000pt" height="300.000000pt" viewBox="0 0 300.000000 300.000000"
 preserveAspectRatio="xMidYMid meet">
<metadata>
Created by potrace 1.11, written by Peter Selinger 2001-2013
</metadata>
<g transform="translate(0.000000,300.000000) scale(0.100000,-0.100000)"
fill="#000000" stroke="none">
<path d="M1266 2675 c-13 -10 -17 -21 -12 -39 6 -23 40 -83 66 -113 16 -19 28
-129 32 -283 l3 -145 -45 -8 c-25 -4 -70 -12 -100 -16 -30 -5 -101 -18 -158
-30 -122 -25 -141 -26 -148 -7 -10 27 -36 26 -105 -6 l-71 -32 5 -50 c6 -58
15 -102 27 -131 5 -11 11 -36 14 -55 2 -19 16 -87 30 -150 15 -63 31 -140 37
-170 5 -30 15 -77 20 -105 6 -27 13 -81 16 -118 4 -58 8 -70 29 -83 22 -15 26
-15 48 0 15 10 30 34 38 63 12 43 18 50 53 62 56 19 116 31 215 41 47 5 95 12
106 15 12 2 26 -1 32 -8 8 -11 22 -299 39 -814 3 -101 9 -183 13 -183 23 0 48
78 70 220 33 210 41 284 61 578 l13 194 41 -6 c22 -3 77 -10 123 -15 91 -12
115 -21 154 -63 14 -15 33 -28 42 -28 9 0 16 -4 16 -10 0 -5 19 -10 41 -10 33
0 47 6 65 27 13 16 24 36 24 45 0 9 5 20 10 23 6 3 10 19 10 35 0 16 4 31 9
34 5 3 11 23 14 43 3 21 10 61 15 88 6 28 17 98 26 156 15 105 24 139 36 149
31 25 54 79 54 125 0 55 -6 66 -89 149 -85 86 -113 102 -190 109 -54 6 -292
-8 -337 -19 l-28 -6 0 171 c0 94 4 171 9 171 13 0 71 56 71 69 0 38 -73 72
-181 86 -26 3 -71 15 -100 25 -30 11 -64 20 -76 20 -12 0 -25 5 -28 10 -9 14
-37 12 -59 -5z m774 -764 c16 -36 21 -58 16 -83 -4 -18 -11 -55 -16 -83 -17
-91 -38 -179 -54 -225 -9 -25 -16 -54 -16 -65 0 -11 -8 -29 -16 -40 -14 -19
-16 -19 -25 -2 -11 19 -49 23 -65 7 -10 -10 -214 14 -243 29 -15 8 -17 172 -5
399 l7 112 197 0 197 0 23 -49z m-662 -118 c7 -82 12 -192 12 -245 l0 -98 -72
0 c-40 0 -107 -7 -148 -15 -72 -15 -88 -20 -145 -47 -14 -6 -26 -9 -28 -7 -2
2 -10 69 -17 149 -20 223 -27 283 -34 305 -8 23 14 38 69 50 17 3 50 11 75 16
25 6 73 13 107 17 34 4 65 11 69 15 4 4 28 7 54 7 l46 0 12 -147z"/>
<path d="M430 143 c0 -31 35 -60 94 -77 48 -14 164 -16 973 -16 759 0 927 3
971 14 66 18 84 32 80 65 -2 22 -7 25 -28 22 -46 -8 -1964 -4 -2027 4 -58 7
-63 6 -63 -12z"/>
</g>
</svg>
